<svg width="32" height="32" viewBox="0 0 32 32" fill="none" xmlns="http://www.w3.org/2000/svg">
  <defs>
    <linearGradient id="grad" x1="0%" y1="0%" x2="100%" y2="100%">
      <stop offset="0%" style="stop-color:#0EA5E9;stop-opacity:1" />
      <stop offset="50%" style="stop-color:#6366F1;stop-opacity:1" />
      <stop offset="100%" style="stop-color:#8B5CF6;stop-opacity:1" />
    </linearGradient>
  </defs>

  <!-- Background -->
  <rect width="32" height="32" rx="6" fill="url(#grad)"/>

  <!-- Simplified Brain Icon -->
  <g transform="translate(16, 16)">
    <!-- Left hemisphere -->
    <path d="M-4,-5 Q-7,-5 -7,-2 Q-7,2 -5,3 Q-3,5 -2,4 Q-1,3 -1,2 L-1,-2 Q-1,-4 -2,-4.5 Q-3,-5 -4,-5 Z"
          fill="white"
          opacity="0.9"/>

    <!-- Right hemisphere -->
    <path d="M4,-5 Q7,-5 7,-2 Q7,2 5,3 Q3,5 2,4 Q1,3 1,2 L1,-2 Q1,-4 2,-4.5 Q3,-5 4,-5 Z"
          fill="white"/>

    <!-- Center connection -->
    <ellipse cx="0" cy="0" rx="1.2" ry="2.5" fill="white" opacity="0.7"/>
  </g>
</svg>
