<svg width="1200" height="630" viewBox="0 0 1200 630" fill="none" xmlns="http://www.w3.org/2000/svg">
  <!-- Background gradient -->
  <defs>
    <linearGradient id="bgGradient" x1="0%" y1="0%" x2="100%" y2="100%">
      <stop offset="0%" style="stop-color:#0EA5E9;stop-opacity:1" />
      <stop offset="50%" style="stop-color:#6366F1;stop-opacity:1" />
      <stop offset="100%" style="stop-color:#8B5CF6;stop-opacity:1" />
    </linearGradient>
    <radialGradient id="glow1" cx="50%" cy="50%">
      <stop offset="0%" style="stop-color:#60A5FA;stop-opacity:0.4" />
      <stop offset="100%" style="stop-color:#60A5FA;stop-opacity:0" />
    </radialGradient>
    <radialGradient id="glow2" cx="50%" cy="50%">
      <stop offset="0%" style="stop-color:#A78BFA;stop-opacity:0.4" />
      <stop offset="100%" style="stop-color:#A78BFA;stop-opacity:0" />
    </radialGradient>
  </defs>

  <!-- Background -->
  <rect width="1200" height="630" fill="url(#bgGradient)"/>

  <!-- Decorative glows -->
  <circle cx="200" cy="150" r="200" fill="url(#glow1)"/>
  <circle cx="1000" cy="500" r="250" fill="url(#glow2)"/>

  <!-- Logo/Brain Icon -->
  <g transform="translate(150, 315)">
    <circle cx="0" cy="0" r="80" fill="white" opacity="0.1"/>
    <!-- Left hemisphere -->
    <path d="M-25,-30 Q-45,-30 -45,-10 Q-45,10 -35,20 Q-25,30 -15,25 Q-10,22 -10,15 L-10,-15 Q-10,-25 -15,-28 Q-20,-30 -25,-30 Z"
          fill="white"
          opacity="0.95"/>
    <!-- Right hemisphere -->
    <path d="M25,-30 Q45,-30 45,-10 Q45,10 35,20 Q25,30 15,25 Q10,22 10,15 L10,-15 Q10,-25 15,-28 Q20,-30 25,-30 Z"
          fill="white"/>
    <!-- Center connection -->
    <ellipse cx="0" cy="-5" rx="8" ry="15" fill="white" opacity="0.8"/>
  </g>

  <!-- Main text content -->
  <text x="320" y="280" font-family="system-ui, -apple-system, sans-serif" font-size="72" font-weight="bold" fill="white">
    Study Buddy
  </text>
  <text x="320" y="350" font-family="system-ui, -apple-system, sans-serif" font-size="36" fill="white" opacity="0.9">
    Your AI-Powered Study Companion
  </text>

  <!-- Feature tags -->
  <g transform="translate(320, 400)">
    <rect x="0" y="0" width="200" height="45" rx="22.5" fill="white" opacity="0.2"/>
    <text x="100" y="30" font-family="system-ui, -apple-system, sans-serif" font-size="20" font-weight="600" fill="white" text-anchor="middle">
      🧠 AI Quizzes
    </text>
  </g>
  <g transform="translate(540, 400)">
    <rect x="0" y="0" width="200" height="45" rx="22.5" fill="white" opacity="0.2"/>
    <text x="100" y="30" font-family="system-ui, -apple-system, sans-serif" font-size="20" font-weight="600" fill="white" text-anchor="middle">
      📚 Flashcards
    </text>
  </g>
  <g transform="translate(760, 400)">
    <rect x="0" y="0" width="240" height="45" rx="22.5" fill="white" opacity="0.2"/>
    <text x="120" y="30" font-family="system-ui, -apple-system, sans-serif" font-size="20" font-weight="600" fill="white" text-anchor="middle">
      💡 Explanations
    </text>
  </g>

  <!-- Decorative sparkles -->
  <circle cx="900" cy="200" r="4" fill="white" opacity="0.8"/>
  <circle cx="1050" cy="250" r="3" fill="white" opacity="0.6"/>
  <circle cx="950" cy="180" r="3" fill="white" opacity="0.7"/>
</svg>
